<svg xmlns="http://www.w3.org/2000/svg" viewBox="0 0 64 64" role="img" aria-label="Pharmalogic icon">
  <defs>
    <linearGradient id="grad" x1="0%" y1="0%" x2="100%" y2="100%">
      <stop offset="0%" stop-color="#2ec5b6" />
      <stop offset="100%" stop-color="#4f8cff" />
    </linearGradient>
  </defs>
  <rect width="64" height="64" rx="16" fill="url(#grad)" />
  <path d="M30 14h4a2 2 0 0 1 2 2v12h12a2 2 0 0 1 2 2v4a2 2 0 0 1-2 2H36v12a2 2 0 0 1-2 2h-4a2 2 0 0 1-2-2V36H16a2 2 0 0 1-2-2v-4a2 2 0 0 1 2-2h12V16a2 2 0 0 1 2-2z" fill="#0e1116" />
</svg>
